<svg width="20" height="20" viewBox="0 0 20 20" fill="none" xmlns="http://www.w3.org/2000/svg">
<circle cx="6" cy="6" r="6" fill="#525252"/>
<path d="M9.40067 3H2.59933C1.99319 3 1.5 3.48431 1.5 4.07954V7.92046C1.5 8.51569 1.99319 9 2.59933 9H9.40067C10.0068 9 10.5 8.51569 10.5 7.92046V4.07966C10.5001 3.48431 10.0069 3 9.40067 3ZM8.8635 3.70428L6 5.51592L3.1365 3.70428H8.8635ZM9.40067 8.29584H2.59933C2.3886 8.29584 2.21719 8.1274 2.21719 7.92057V4.09962L5.77875 6.34862C5.78353 6.35155 5.78867 6.35355 5.79357 6.35625C5.79871 6.35907 5.80397 6.36177 5.80923 6.36435C5.83684 6.37832 5.86529 6.38958 5.89433 6.39698C5.89732 6.3978 5.90031 6.39815 5.9033 6.39886C5.93521 6.40625 5.96749 6.41083 5.99976 6.41083H6C6.00024 6.41083 6.00048 6.41083 6.00048 6.41083C6.03275 6.41083 6.06503 6.40637 6.09694 6.39886C6.09993 6.39815 6.10292 6.3978 6.10591 6.39698C6.13495 6.38958 6.16328 6.37832 6.19101 6.36435C6.19627 6.36177 6.20153 6.35907 6.20667 6.35625C6.21157 6.35355 6.21671 6.35155 6.22149 6.34862L9.78305 4.09962V7.92046C9.78293 8.1274 9.6114 8.29584 9.40067 8.29584Z" fill="white"/>
</svg>
